Linefont[dflt,low].ufo
<glyph name="neg.-100" format="2">
	<advance width="50"/>
	<outline>
		<contour>
			<point x="-12.516" y="0.624" type="line"/>
			<point x="37.484" y="-999.376" type="line"/>
			<point x="12.516" y="-1000.624" type="line"/>
			<point x="-37.484" y="-0.624" type="line"/>
		</contour>
	</outline>
</glyph>
<glyph name="neg.-102" format="2">
	<advance width="50"/>
	<outline>
		<contour>
			<point x="-12.515" y="0.612" type="line"/>
			<point x="37.485" y="-1019.388" type="line"/>
			<point x="12.515" y="-1020.612" type="line"/>
			<point x="-37.485" y="-0.612" type="line"/>
		</contour>
	</outline>
</glyph>
<glyph name="neg.-105" format="2">
	<advance width="50"/>
	<outline>
		<contour>
			<point x="-12.514" y="0.595" type="line"/>
			<point x="37.486" y="-1049.405" type="line"/>
			<point x="12.514" y="-1050.595" type="line"/>
			<point x="-37.486" y="-0.595" type="line"/>
		</contour>
	</outline>
</glyph>
<glyph name="neg.-106" format="2">
	<advance width="50"/>
	<outline>
		<contour>
			<point x="-12.514" y="0.589" type="line"/>
			<point x="37.486" y="-1059.411" type="line"/>
			<point x="12.514" y="-1060.589" type="line"/>
			<point x="-37.486" y="-0.589" type="line"/>
		</contour>
	</outline>
</glyph>
<glyph name="neg.-107" format="2">
	<advance width="50"/>
	<outline>
		<contour>
			<point x="-12.514" y="0.583" type="line"/>
			<point x="37.486" y="-1069.417" type="line"/>
			<point x="12.514" y="-1070.583" type="line"/>
			<point x="-37.486" y="-0.583" type="line"/>
		</contour>
	</outline>
</glyph>
<glyph name="neg.-109" format="2">
	<advance width="50"/>
	<outline>
		<contour>
			<point x="-12.513" y="0.573" type="line"/>
			<point x="37.487" y="-1089.427" type="line"/>
			<point x="12.513" y="-1090.573" type="line"/>
			<point x="-37.487" y="-0.573" type="line"/>
		</contour>
	</outline>
</glyph>
<glyph name="neg.-110" format="2">
	<advance width="50"/>
	<outline>
		<contour>
			<point x="-12.513" y="0.568" type="line"/>
			<point x="37.487" y="-1099.432" type="line"/>
			<point x="12.513" y="-1100.568" type="line"/>
			<point x="-37.487" y="-0.568" type="line"/>
		</contour>
	</outline>
</glyph>
<glyph name="neg.-114" format="2">
	<advance width="50"/>
	<outline>
		<contour>
			<point x="-12.512" y="0.548" type="line"/>
			<point x="37.488" y="-1139.452" type="line"/>
			<point x="12.512" y="-1140.548" type="line"/>
			<point x="-37.488" y="-0.548" type="line"/>
		</contour>
	</outline>
</glyph>
<glyph name="neg.-115" format="2">
	<advance width="50"/>
	<outline>
		<contour>
			<point x="-12.512" y="0.543" type="line"/>
			<point x="37.488" y="-1149.457" type="line"/>
			<point x="12.512" y="-1150.543" type="line"/>
			<point x="-37.488" y="-0.543" type="line"/>
		</contour>
	</outline>
</glyph>
<glyph name="neg.-120" format="2">
	<advance width="50"/>
	<outline>
		<contour>
			<point x="-12.511" y="0.52" type="line"/>
			<point x="37.489" y="-1199.48" type="line"/>
			<point x="12.511" y="-1200.52" type="line"/>
			<point x="-37.489" y="-0.52" type="line"/>
		</contour>
	</outline>
</glyph>
<glyph name="neg.-122" format="2">
	<advance width="50"/>
	<outline>
		<contour>
			<point x="-12.51" y="0.512" type="line"/>
			<point x="37.49" y="-1219.488" type="line"/>
			<point x="12.51" y="-1220.512" type="line"/>
			<point x="-37.49" y="-0.512" type="line"/>
		</contour>
	</outline>
</glyph>
<glyph name="neg.-125" format="2">
	<advance width="50"/>
	<outline>
		<contour>
			<point x="-12.51" y="0.5" type="line"/>
			<point x="37.49" y="-1249.5" type="line"/>
			<point x="12.51" y="-1250.5" type="line"/>
			<point x="-37.49" y="-0.5" type="line"/>
		</contour>
	</outline>
</glyph>
<glyph name="neg.-127" format="2">
	<advance width="50"/>
	<outline>
		<contour>
			<point x="-12.51" y="0.492" type="line"/>
			<point x="37.49" y="-1269.508" type="line"/>
			<point x="12.51" y="-1270.492" type="line"/>
			<point x="-37.49" y="-0.492" type="line"/>
		</contour>
	</outline>
</glyph>
<glyph name="neg.-13" format="2">
	<advance width="50"/>
	<outline>
		<contour>
			<point x="-13.333" y="4.487" type="line"/>
			<point x="36.667" y="-125.513" type="line"/>
			<point x="13.333" y="-134.487" type="line"/>
			<point x="-36.667" y="-4.487" type="line"/>
		</contour>
	</outline>
</glyph>
<glyph name="neg.-16" format="2">
	<advance width="50"/>
	<outline>
		<contour>
			<point x="-13.069" y="3.728" type="line"/>
			<point x="36.931" y="-156.272" type="line"/>
			<point x="13.069" y="-163.728" type="line"/>
			<point x="-36.931" y="-3.728" type="line"/>
		</contour>
	</outline>
</glyph>
<glyph name="neg.-18" format="2">
	<advance width="50"/>
	<outline>
		<contour>
			<point x="-12.956" y="3.346" type="line"/>
			<point x="37.044" y="-176.654" type="line"/>
			<point x="12.956" y="-183.346" type="line"/>
			<point x="-37.044" y="-3.346" type="line"/>
		</contour>
	</outline>
</glyph>
<glyph name="neg.-2" format="2">
	<advance width="50"/>
	<outline>
		<contour>
			<point x="-20.358" y="11.606" type="line"/>
			<point x="29.642" y="-8.394" type="line"/>
			<point x="20.358" y="-31.606" type="line"/>
			<point x="-29.642" y="-11.606" type="line"/>
		</contour>
	</outline>
</glyph>
<glyph name="neg.-20" format="2">
	<advance width="50"/>
	<outline>
		<contour>
			<point x="-12.873" y="3.032" type="line"/>
			<point x="37.127" y="-196.968" type="line"/>
			<point x="12.873" y="-203.032" type="line"/>
			<point x="-37.127" y="-3.032" type="line"/>
		</contour>
	</outline>
</glyph>
<glyph name="neg.-21" format="2">
	<advance width="50"/>
	<outline>
		<contour>
			<point x="-12.84" y="2.895" type="line"/>
			<point x="37.16" y="-207.105" type="line"/>
			<point x="12.84" y="-212.895" type="line"/>
			<point x="-37.16" y="-2.895" type="line"/>
		</contour>
	</outline>
</glyph>
<glyph name="neg.-22" format="2">
	<advance width="50"/>
	<outline>
		<contour>
			<point x="-12.811" y="2.77" type="line"/>
			<point x="37.189" y="-217.23" type="line"/>
			<point x="12.811" y="-222.77" type="line"/>
			<point x="-37.189" y="-2.77" type="line"/>
		</contour>
	</outline>
</glyph>
<glyph name="neg.-23" format="2">
	<advance width="50"/>
	<outline>
		<contour>
			<point x="-12.785" y="2.655" type="line"/>
			<point x="37.215" y="-227.345" type="line"/>
			<point x="12.785" y="-232.655" type="line"/>
			<point x="-37.215" y="-2.655" type="line"/>
		</contour>
	</outline>
</glyph>
<glyph name="neg.-25" format="2">
	<advance width="50"/>
	<outline>
		<contour>
			<point x="-12.743" y="2.451" type="line"/>
			<point x="37.257" y="-247.549" type="line"/>
			<point x="12.743" y="-252.451" type="line"/>
			<point x="-37.257" y="-2.451" type="line"/>
		</contour>
	</outline>
</glyph>
<glyph name="neg.-27" format="2">
	<advance width="50"/>
	<outline>
		<contour>
			<point x="-12.709" y="2.276" type="line"/>
			<point x="37.291" y="-267.724" type="line"/>
			<point x="12.709" y="-272.276" type="line"/>
			<point x="-37.291" y="-2.276" type="line"/>
		</contour>
	</outline>
</glyph>
<glyph name="neg.-3" format="2">
	<advance width="50"/>
	<outline>
		<contour>
			<point x="-18.569" y="10.719" type="line"/>
			<point x="31.431" y="-19.281" type="line"/>
			<point x="18.569" y="-40.719" type="line"/>
			<point x="-31.431" y="-10.719" type="line"/>
		</contour>
	</outline>
</glyph>
<glyph name="neg.-30" format="2">
	<advance width="50"/>
	<outline>
		<contour>
			<point x="-12.67" y="2.055" type="line"/>
			<point x="37.33" y="-297.945" type="line"/>
			<point x="12.67" y="-302.055" type="line"/>
			<point x="-37.33" y="-2.055" type="line"/>
		</contour>
	</outline>
</glyph>
<glyph name="neg.-33" format="2">
	<advance width="50"/>
	<outline>
		<contour>
			<point x="-12.641" y="1.873" type="line"/>
			<point x="37.359" y="-328.127" type="line"/>
			<point x="12.641" y="-331.873" type="line"/>
			<point x="-37.359" y="-1.873" type="line"/>
		</contour>
	</outline>
</glyph>
<glyph name="neg.-36" format="2">
	<advance width="50"/>
	<outline>
		<contour>
			<point x="-12.619" y="1.72" type="line"/>
			<point x="37.381" y="-358.28" type="line"/>
			<point x="12.619" y="-361.72" type="line"/>
			<point x="-37.381" y="-1.72" type="line"/>
		</contour>
	</outline>
</glyph>
<glyph name="neg.-37" format="2">
	<advance width="50"/>
	<outline>
		<contour>
			<point x="-12.613" y="1.674" type="line"/>
			<point x="37.387" y="-368.326" type="line"/>
			<point x="12.613" y="-371.674" type="line"/>
			<point x="-37.387" y="-1.674" type="line"/>
		</contour>
	</outline>
</glyph>
<glyph name="neg.-39" format="2">
	<advance width="50"/>
	<outline>
		<contour>
			<point x="-12.601" y="1.59" type="line"/>
			<point x="37.399" y="-388.41" type="line"/>
			<point x="12.601" y="-391.59" type="line"/>
			<point x="-37.399" y="-1.59" type="line"/>
		</contour>
	</outline>
</glyph>
<glyph name="neg.-41" format="2">
	<advance width="50"/>
	<outline>
		<contour>
			<point x="-12.592" y="1.513" type="line"/>
			<point x="37.408" y="-408.487" type="line"/>
			<point x="12.592" y="-411.513" type="line"/>
			<point x="-37.408" y="-1.513" type="line"/>
		</contour>
	</outline>
</glyph>
<glyph name="neg.-42" format="2">
	<advance width="50"/>
	<outline>
		<contour>
			<point x="-12.588" y="1.478" type="line"/>
			<point x="37.412" y="-418.522" type="line"/>
			<point x="12.588" y="-421.478" type="line"/>
			<point x="-37.412" y="-1.478" type="line"/>
		</contour>
	</outline>
</glyph>
<glyph name="neg.-43" format="2">
	<advance width="50"/>
	<outline>
		<contour>
			<point x="-12.584" y="1.444" type="line"/>
			<point x="37.416" y="-428.556" type="line"/>
			<point x="12.584" y="-431.444" type="line"/>
			<point x="-37.416" y="-1.444" type="line"/>
		</contour>
	</outline>
</glyph>
<glyph name="neg.-46" format="2">
	<advance width="50"/>
	<outline>
		<contour>
			<point x="-12.573" y="1.351" type="line"/>
			<point x="37.427" y="-458.649" type="line"/>
			<point x="12.573" y="-461.351" type="line"/>
			<point x="-37.427" y="-1.351" type="line"/>
		</contour>
	</outline>
</glyph>
<glyph name="neg.-47" format="2">
	<advance width="50"/>
	<outline>
		<contour>
			<point x="-12.57" y="1.322" type="line"/>
			<point x="37.43" y="-468.678" type="line"/>
			<point x="12.57" y="-471.322" type="line"/>
			<point x="-37.43" y="-1.322" type="line"/>
		</contour>
	</outline>
</glyph>
<glyph name="neg.-48" format="2">
	<advance width="50"/>
	<outline>
		<contour>
			<point x="-12.567" y="1.295" type="line"/>
			<point x="37.433" y="-478.705" type="line"/>
			<point x="12.567" y="-481.295" type="line"/>
			<point x="-37.433" y="-1.295" type="line"/>
		</contour>
	</outline>
</glyph>
<glyph name="neg.-51" format="2">
	<advance width="50"/>
	<outline>
		<contour>
			<point x="-12.56" y="1.22" type="line"/>
			<point x="37.44" y="-508.78" type="line"/>
			<point x="12.56" y="-511.22" type="line"/>
			<point x="-37.44" y="-1.22" type="line"/>
		</contour>
	</outline>
</glyph>
<glyph name="neg.-57" format="2">
	<advance width="50"/>
	<outline>
		<contour>
			<point x="-12.548" y="1.092" type="line"/>
			<point x="37.452" y="-568.908" type="line"/>
			<point x="12.548" y="-571.092" type="line"/>
			<point x="-37.452" y="-1.092" type="line"/>
		</contour>
	</outline>
</glyph>
<glyph name="neg.-58" format="2">
	<advance width="50"/>
	<outline>
		<contour>
			<point x="-12.546" y="1.074" type="line"/>
			<point x="37.454" y="-578.926" type="line"/>
			<point x="12.546" y="-581.074" type="line"/>
			<point x="-37.454" y="-1.074" type="line"/>
		</contour>
	</outline>
</glyph>
<glyph name="neg.-59" format="2">
	<advance width="50"/>
	<outline>
		<contour>
			<point x="-12.545" y="1.056" type="line"/>
			<point x="37.455" y="-588.944" type="line"/>
			<point x="12.545" y="-591.056" type="line"/>
			<point x="-37.455" y="-1.056" type="line"/>
		</contour>
	</outline>
</glyph>
<glyph name="neg.-60" format="2">
	<advance width="50"/>
	<outline>
		<contour>
			<point x="-12.543" y="1.038" type="line"/>
			<point x="37.457" y="-598.962" type="line"/>
			<point x="12.543" y="-601.038" type="line"/>
			<point x="-37.457" y="-1.038" type="line"/>
		</contour>
	</outline>
</glyph>
<glyph name="neg.-63" format="2">
	<advance width="50"/>
	<outline>
		<contour>
			<point x="-12.539" y="0.989" type="line"/>
			<point x="37.461" y="-629.011" type="line"/>
			<point x="12.539" y="-630.989" type="line"/>
			<point x="-37.461" y="-0.989" type="line"/>
		</contour>
	</outline>
</glyph>
<glyph name="neg.-64" format="2">
	<advance width="50"/>
	<outline>
		<contour>
			<point x="-12.538" y="0.974" type="line"/>
			<point x="37.462" y="-639.026" type="line"/>
			<point x="12.538" y="-640.974" type="line"/>
			<point x="-37.462" y="-0.974" type="line"/>
		</contour>
	</outline>
</glyph>
<glyph name="neg.-65" format="2">
	<advance width="50"/>
	<outline>
		<contour>
			<point x="-12.537" y="0.959" type="line"/>
			<point x="37.463" y="-649.041" type="line"/>
			<point x="12.537" y="-650.959" type="line"/>
			<point x="-37.463" y="-0.959" type="line"/>
		</contour>
	</outline>
</glyph>
<glyph name="neg.-66" format="2">
	<advance width="50"/>
	<outline>
		<contour>
			<point x="-12.536" y="0.944" type="line"/>
			<point x="37.464" y="-659.056" type="line"/>
			<point x="12.536" y="-660.944" type="line"/>
			<point x="-37.464" y="-0.944" type="line"/>
		</contour>
	</outline>
</glyph>
<glyph name="neg.-67" format="2">
	<advance width="50"/>
	<outline>
		<contour>
			<point x="-12.535" y="0.93" type="line"/>
			<point x="37.465" y="-669.07" type="line"/>
			<point x="12.535" y="-670.93" type="line"/>
			<point x="-37.465" y="-0.93" type="line"/>
		</contour>
	</outline>
</glyph>
<glyph name="neg.-68" format="2">
	<advance width="50"/>
	<outline>
		<contour>
			<point x="-12.534" y="0.917" type="line"/>
			<point x="37.466" y="-679.083" type="line"/>
			<point x="12.534" y="-680.917" type="line"/>
			<point x="-37.466" y="-0.917" type="line"/>
		</contour>
	</outline>
</glyph>
<glyph name="neg.-70" format="2">
	<advance width="50"/>
	<outline>
		<contour>
			<point x="-12.532" y="0.891" type="line"/>
			<point x="37.468" y="-699.109" type="line"/>
			<point x="12.532" y="-700.891" type="line"/>
			<point x="-37.468" y="-0.891" type="line"/>
		</contour>
	</outline>
</glyph>
<glyph name="neg.-72" format="2">
	<advance width="50"/>
	<outline>
		<contour>
			<point x="-12.53" y="0.866" type="line"/>
			<point x="37.47" y="-719.134" type="line"/>
			<point x="12.53" y="-720.866" type="line"/>
			<point x="-37.47" y="-0.866" type="line"/>
		</contour>
	</outline>
</glyph>
<glyph name="neg.-73" format="2">
	<advance width="50"/>
	<outline>
		<contour>
			<point x="-12.529" y="0.854" type="line"/>
			<point x="37.471" y="-729.146" type="line"/>
			<point x="12.529" y="-730.854" type="line"/>
			<point x="-37.471" y="-0.854" type="line"/>
		</contour>
	</outline>
</glyph>
<glyph name="neg.-74" format="2">
	<advance width="50"/>
	<outline>
		<contour>
			<point x="-12.528" y="0.843" type="line"/>
			<point x="37.472" y="-739.157" type="line"/>
			<point x="12.528" y="-740.843" type="line"/>
			<point x="-37.472" y="-0.843" type="line"/>
		</contour>
	</outline>
</glyph>
<glyph name="neg.-76" format="2">
	<advance width="50"/>
	<outline>
		<contour>
			<point x="-12.527" y="0.821" type="line"/>
			<point x="37.473" y="-759.179" type="line"/>
			<point x="12.527" y="-760.821" type="line"/>
			<point x="-37.473" y="-0.821" type="line"/>
		</contour>
	</outline>
</glyph>
<glyph name="neg.-78" format="2">
	<advance width="50"/>
	<outline>
		<contour>
			<point x="-12.526" y="0.8" type="line"/>
			<point x="37.474" y="-779.2" type="line"/>
			<point x="12.526" y="-780.8" type="line"/>
			<point x="-37.474" y="-0.8" type="line"/>
		</contour>
	</outline>
</glyph>
<glyph name="neg.-83" format="2">
	<advance width="50"/>
	<outline>
		<contour>
			<point x="-12.523" y="0.752" type="line"/>
			<point x="37.477" y="-829.248" type="line"/>
			<point x="12.523" y="-830.752" type="line"/>
			<point x="-37.477" y="-0.752" type="line"/>
		</contour>
	</outline>
</glyph>
<glyph name="neg.-85" format="2">
	<advance width="50"/>
	<outline>
		<contour>
			<point x="-12.522" y="0.734" type="line"/>
			<point x="37.478" y="-849.266" type="line"/>
			<point x="12.522" y="-850.734" type="line"/>
			<point x="-37.478" y="-0.734" type="line"/>
		</contour>
	</outline>
</glyph>
<glyph name="neg.-90" format="2">
	<advance width="50"/>
	<outline>
		<contour>
			<point x="-12.519" y="0.693" type="line"/>
			<point x="37.481" y="-899.307" type="line"/>
			<point x="12.519" y="-900.693" type="line"/>
			<point x="-37.481" y="-0.693" type="line"/>
		</contour>
	</outline>
</glyph>
<glyph name="neg.-91" format="2">
	<advance width="50"/>
	<outline>
		<contour>
			<point x="-12.519" y="0.686" type="line"/>
			<point x="37.481" y="-909.314" type="line"/>
			<point x="12.519" y="-910.686" type="line"/>
			<point x="-37.481" y="-0.686" type="line"/>
		</contour>
	</outline>
</glyph>
<glyph name="neg.-94" format="2">
	<advance width="50"/>
	<outline>
		<contour>
			<point x="-12.518" y="0.664" type="line"/>
			<point x="37.482" y="-939.336" type="line"/>
			<point x="12.518" y="-940.664" type="line"/>
			<point x="-37.482" y="-0.664" type="line"/>
		</contour>
	</outline>
</glyph>
<glyph name="neg.-97" format="2">
	<advance width="50"/>
	<outline>
		<contour>
			<point x="-12.517" y="0.643" type="line"/>
			<point x="37.483" y="-969.357" type="line"/>
			<point x="12.517" y="-970.643" type="line"/>
			<point x="-37.483" y="-0.643" type="line"/>
		</contour>
	</outline>
</glyph>
<glyph name="pos.1" format="2">
	<advance width="50"/>
	<outline>
		<contour>
			<point x="-27.451" y="12.257" type="line"/>
			<point x="22.549" y="22.257" type="line"/>
			<point x="27.451" y="-2.257" type="line"/>
			<point x="-22.549" y="-12.257" type="line"/>
		</contour>
	</outline>
</glyph>
<glyph name="pos.10" format="2">
	<advance width="50"/>
	<outline>
		<contour>
			<point x="-36.18" y="5.59" type="line"/>
			<point x="13.82" y="105.59" type="line"/>
			<point x="36.18" y="94.41" type="line"/>
			<point x="-13.82" y="-5.59" type="line"/>
		</contour>
	</outline>
</glyph>
<glyph name="pos.101" format="2">
	<advance width="50"/>
	<outline>
		<contour>
			<point x="-37.485" y="0.618" type="line"/>
			<point x="12.515" y="1010.618" type="line"/>
			<point x="37.485" y="1009.382" type="line"/>
			<point x="-12.515" y="-0.618" type="line"/>
		</contour>
	</outline>
</glyph>
<glyph name="pos.103" format="2">
	<advance width="50"/>
	<outline>
		<contour>
			<point x="-37.485" y="0.606" type="line"/>
			<point x="12.515" y="1030.606" type="line"/>
			<point x="37.485" y="1029.394" type="line"/>
			<point x="-12.515" y="-0.606" type="line"/>
		</contour>
	</outline>
</glyph>
<glyph name="pos.104" format="2">
	<advance width="50"/>
	<outline>
		<contour>
			<point x="-37.486" y="0.6" type="line"/>
			<point x="12.514" y="1040.6" type="line"/>
			<point x="37.486" y="1039.4" type="line"/>
			<point x="-12.514" y="-0.6" type="line"/>
		</contour>
	</outline>
</glyph>
<glyph name="pos.108" format="2">
	<advance width="50"/>
	<outline>
		<contour>
			<point x="-37.487" y="0.578" type="line"/>
			<point x="12.513" y="1080.578" type="line"/>
			<point x="37.487" y="1079.422" type="line"/>
			<point x="-12.513" y="-0.578" type="line"/>
		</contour>
	</outline>
</glyph>
<glyph name="pos.11" format="2">
	<advance width="50"/>
	<outline>
		<contour>
			<point x="-36.38" y="5.173" type="line"/>
			<point x="13.62" y="115.173" type="line"/>
			<point x="36.38" y="104.827" type="line"/>
			<point x="-13.62" y="-5.173" type="line"/>
		</contour>
	</outline>
</glyph>
<glyph name="pos.111" format="2">
	<advance width="50"/>
	<outline>
		<contour>
			<point x="-37.487" y="0.562" type="line"/>
			<point x="12.513" y="1110.562" type="line"/>
			<point x="37.487" y="1109.438" type="line"/>
			<point x="-12.513" y="-0.562" type="line"/>
		</contour>
	</outline>
</glyph>
<glyph name="pos.112" format="2">
	<advance width="50"/>
	<outline>
		<contour>
			<point x="-37.488" y="0.557" type="line"/>
			<point x="12.512" y="1120.557" type="line"/>
			<point x="37.488" y="1119.443" type="line"/>
			<point x="-12.512" y="-0.557" type="line"/>
		</contour>
	</outline>
</glyph>
<glyph name="pos.113" format="2">
	<advance width="50"/>
	<outline>
		<contour>
			<point x="-37.488" y="0.553" type="line"/>
			<point x="12.512" y="1130.553" type="line"/>
			<point x="37.488" y="1129.447" type="line"/>
			<point x="-12.512" y="-0.553" type="line"/>
		</contour>
	</outline>
</glyph>
<glyph name="pos.116" format="2">
	<advance width="50"/>
	<outline>
		<contour>
			<point x="-37.488" y="0.538" type="line"/>
			<point x="12.512" y="1160.538" type="line"/>
			<point x="37.488" y="1159.462" type="line"/>
			<point x="-12.512" y="-0.538" type="line"/>
		</contour>
	</outline>
</glyph>
<glyph name="pos.117" format="2">
	<advance width="50"/>
	<outline>
		<contour>
			<point x="-37.489" y="0.534" type="line"/>
			<point x="12.511" y="1170.534" type="line"/>
			<point x="37.489" y="1169.466" type="line"/>
			<point x="-12.511" y="-0.534" type="line"/>
		</contour>
	</outline>
</glyph>
<glyph name="pos.118" format="2">
	<advance width="50"/>
	<outline>
		<contour>
			<point x="-37.489" y="0.529" type="line"/>
			<point x="12.511" y="1180.529" type="line"/>
			<point x="37.489" y="1179.471" type="line"/>
			<point x="-12.511" y="-0.529" type="line"/>
		</contour>
	</outline>
</glyph>
<glyph name="pos.119" format="2">
	<advance width="50"/>
	<outline>
		<contour>
			<point x="-37.489" y="0.525" type="line"/>
			<point x="12.511" y="1190.525" type="line"/>
			<point x="37.489" y="1189.475" type="line"/>
			<point x="-12.511" y="-0.525" type="line"/>
		</contour>
	</outline>
</glyph>
<glyph name="pos.12" format="2">
	<advance width="50"/>
	<outline>
		<contour>
			<point x="-36.538" y="4.808" type="line"/>
			<point x="13.462" y="124.808" type="line"/>
			<point x="36.538" y="115.192" type="line"/>
			<point x="-13.462" y="-4.808" type="line"/>
		</contour>
	</outline>
</glyph>
<glyph name="pos.121" format="2">
	<advance width="50"/>
	<outline>
		<contour>
			<point x="-37.489" y="0.516" type="line"/>
			<point x="12.511" y="1210.516" type="line"/>
			<point x="37.489" y="1209.484" type="line"/>
			<point x="-12.511" y="-0.516" type="line"/>
		</contour>
	</outline>
</glyph>
<glyph name="pos.123" format="2">
	<advance width="50"/>
	<outline>
		<contour>
			<point x="-37.49" y="0.508" type="line"/>
			<point x="12.51" y="1230.508" type="line"/>
			<point x="37.49" y="1229.492" type="line"/>
			<point x="-12.51" y="-0.508" type="line"/>
		</contour>
	</outline>
</glyph>
<glyph name="pos.124" format="2">
	<advance width="50"/>
	<outline>
		<contour>
			<point x="-37.49" y="0.504" type="line"/>
			<point x="12.51" y="1240.504" type="line"/>
			<point x="37.49" y="1239.496" type="line"/>
			<point x="-12.51" y="-0.504" type="line"/>
		</contour>
	</outline>
</glyph>
<glyph name="pos.126" format="2">
	<advance width="50"/>
	<outline>
		<contour>
			<point x="-37.49" y="0.496" type="line"/>
			<point x="12.51" y="1260.496" type="line"/>
			<point x="37.49" y="1259.504" type="line"/>
			<point x="-12.51" y="-0.496" type="line"/>
		</contour>
	</outline>
</glyph>
<glyph name="pos.14" format="2">
	<advance width="50"/>
	<outline>
		<contour>
			<point x="-36.772" y="4.204" type="line"/>
			<point x="13.228" y="144.204" type="line"/>
			<point x="36.772" y="135.796" type="line"/>
			<point x="-13.228" y="-4.204" type="line"/>
		</contour>
	</outline>
</glyph>
<glyph name="pos.15" format="2">
	<advance width="50"/>
	<outline>
		<contour>
			<point x="-36.859" y="3.953" type="line"/>
			<point x="13.141" y="153.953" type="line"/>
			<point x="36.859" y="146.047" type="line"/>
			<point x="-13.141" y="-3.953" type="line"/>
		</contour>
	</outline>
</glyph>
<glyph name="pos.17" format="2">
	<advance width="50"/>
	<outline>
		<contour>
			<point x="-36.992" y="3.527" type="line"/>
			<point x="13.008" y="173.527" type="line"/>
			<point x="36.992" y="166.473" type="line"/>
			<point x="-13.008" y="-3.527" type="line"/>
		</contour>
	</outline>
</glyph>
<glyph name="pos.19" format="2">
	<advance width="50"/>
	<outline>
		<contour>
			<point x="-37.088" y="3.181" type="line"/>
			<point x="12.912" y="193.181" type="line"/>
			<point x="37.088" y="186.819" type="line"/>
			<point x="-12.912" y="-3.181" type="line"/>
		</contour>
	</outline>
</glyph>
<glyph name="pos.24" format="2">
	<advance width="50"/>
	<outline>
		<contour>
			<point x="-37.237" y="2.549" type="line"/>
			<point x="12.763" y="242.549" type="line"/>
			<point x="37.237" y="237.451" type="line"/>
			<point x="-12.763" y="-2.549" type="line"/>
		</contour>
	</outline>
</glyph>
<glyph name="pos.26" format="2">
	<advance width="50"/>
	<outline>
		<contour>
			<point x="-37.275" y="2.361" type="line"/>
			<point x="12.725" y="262.361" type="line"/>
			<point x="37.275" y="257.639" type="line"/>
			<point x="-12.725" y="-2.361" type="line"/>
		</contour>
	</outline>
</glyph>
<glyph name="pos.28" format="2">
	<advance width="50"/>
	<outline>
		<contour>
			<point x="-37.305" y="2.197" type="line"/>
			<point x="12.695" y="282.197" type="line"/>
			<point x="37.305" y="277.803" type="line"/>
			<point x="-12.695" y="-2.197" type="line"/>
		</contour>
	</outline>
</glyph>
<glyph name="pos.29" format="2">
	<advance width="50"/>
	<outline>
		<contour>
			<point x="-37.318" y="2.124" type="line"/>
			<point x="12.682" y="292.124" type="line"/>
			<point x="37.318" y="287.876" type="line"/>
			<point x="-12.682" y="-2.124" type="line"/>
		</contour>
	</outline>
</glyph>
<glyph name="pos.31" format="2">
	<advance width="50"/>
	<outline>
		<contour>
			<point x="-37.341" y="1.99" type="line"/>
			<point x="12.659" y="311.99" type="line"/>
			<point x="37.341" y="308.01" type="line"/>
			<point x="-12.659" y="-1.99" type="line"/>
		</contour>
	</outline>
</glyph>
<glyph name="pos.32" format="2">
	<advance width="50"/>
	<outline>
		<contour>
			<point x="-37.35" y="1.93" type="line"/>
			<point x="12.65" y="321.93" type="line"/>
			<point x="37.35" y="318.07" type="line"/>
			<point x="-12.65" y="-1.93" type="line"/>
		</contour>
	</outline>
</glyph>
<glyph name="pos.34" format="2">
	<advance width="50"/>
	<outline>
		<contour>
			<point x="-37.367" y="1.819" type="line"/>
			<point x="12.633" y="341.819" type="line"/>
			<point x="37.367" y="338.181" type="line"/>
			<point x="-12.633" y="-1.819" type="line"/>
		</contour>
	</outline>
</glyph>
<glyph name="pos.35" format="2">
	<advance width="50"/>
	<outline>
		<contour>
			<point x="-37.374" y="1.768" type="line"/>
			<point x="12.626" y="351.768" type="line"/>
			<point x="37.374" y="348.232" type="line"/>
			<point x="-12.626" y="-1.768" type="line"/>
		</contour>
	</outline>
</glyph>
<glyph name="pos.38" format="2">
	<advance width="50"/>
	<outline>
		<contour>
			<point x="-37.393" y="1.631" type="line"/>
			<point x="12.607" y="381.631" type="line"/>
			<point x="37.393" y="378.369" type="line"/>
			<point x="-12.607" y="-1.631" type="line"/>
		</contour>
	</outline>
</glyph>
<glyph name="pos.4" format="2">
	<advance width="50"/>
	<outline>
		<contour>
			<point x="-32.809" y="9.761" type="line"/>
			<point x="17.191" y="49.761" type="line"/>
			<point x="32.809" y="30.239" type="line"/>
			<point x="-17.191" y="-9.761" type="line"/>
		</contour>
	</outline>
</glyph>
<glyph name="pos.40" format="2">
	<advance width="50"/>
	<outline>
		<contour>
			<point x="-37.403" y="1.55" type="line"/>
			<point x="12.597" y="401.55" type="line"/>
			<point x="37.403" y="398.45" type="line"/>
			<point x="-12.597" y="-1.55" type="line"/>
		</contour>
	</outline>
</glyph>
<glyph name="pos.44" format="2">
	<advance width="50"/>
	<outline>
		<contour>
			<point x="-37.42" y="1.411" type="line"/>
			<point x="12.58" y="441.411" type="line"/>
			<point x="37.42" y="438.589" type="line"/>
			<point x="-12.58" y="-1.411" type="line"/>
		</contour>
	</outline>
</glyph>
<glyph name="pos.45" format="2">
	<advance width="50"/>
	<outline>
		<contour>
			<point x="-37.424" y="1.38" type="line"/>
			<point x="12.576" y="451.38" type="line"/>
			<point x="37.424" y="448.62" type="line"/>
			<point x="-12.576" y="-1.38" type="line"/>
		</contour>
	</outline>
</glyph>
<glyph name="pos.49" format="2">
	<advance width="50"/>
	<outline>
		<contour>
			<point x="-37.435" y="1.269" type="line"/>
			<point x="12.565" y="491.269" type="line"/>
			<point x="37.435" y="488.731" type="line"/>
			<point x="-12.565" y="-1.269" type="line"/>
		</contour>
	</outline>
</glyph>
<glyph name="pos.5" format="2">
	<advance width="50"/>
	<outline>
		<contour>
			<point x="-33.839" y="8.839" type="line"/>
			<point x="16.161" y="58.839" type="line"/>
			<point x="33.839" y="41.161" type="line"/>
			<point x="-16.161" y="-8.839" type="line"/>
		</contour>
	</outline>
</glyph>
<glyph name="pos.50" format="2">
	<advance width="50"/>
	<outline>
		<contour>
			<point x="-37.438" y="1.244" type="line"/>
			<point x="12.562" y="501.244" type="line"/>
			<point x="37.438" y="498.756" type="line"/>
			<point x="-12.562" y="-1.244" type="line"/>
		</contour>
	</outline>
</glyph>
<glyph name="pos.52" format="2">
	<advance width="50"/>
	<outline>
		<contour>
			<point x="-37.443" y="1.196" type="line"/>
			<point x="12.557" y="521.196" type="line"/>
			<point x="37.443" y="518.804" type="line"/>
			<point x="-12.557" y="-1.196" type="line"/>
		</contour>
	</outline>
</glyph>
<glyph name="pos.53" format="2">
	<advance width="50"/>
	<outline>
		<contour>
			<point x="-37.445" y="1.174" type="line"/>
			<point x="12.555" y="531.174" type="line"/>
			<point x="37.445" y="528.826" type="line"/>
			<point x="-12.555" y="-1.174" type="line"/>
		</contour>
	</outline>
</glyph>
<glyph name="pos.54" format="2">
	<advance width="50"/>
	<outline>
		<contour>
			<point x="-37.447" y="1.152" type="line"/>
			<point x="12.553" y="541.152" type="line"/>
			<point x="37.447" y="538.848" type="line"/>
			<point x="-12.553" y="-1.152" type="line"/>
		</contour>
	</outline>
</glyph>
<glyph name="pos.55" format="2">
	<advance width="50"/>
	<outline>
		<contour>
			<point x="-37.449" y="1.132" type="line"/>
			<point x="12.551" y="551.132" type="line"/>
			<point x="37.449" y="548.868" type="line"/>
			<point x="-12.551" y="-1.132" type="line"/>
		</contour>
	</outline>
</glyph>
<glyph name="pos.56" format="2">
	<advance width="50"/>
	<outline>
		<contour>
			<point x="-37.45" y="1.112" type="line"/>
			<point x="12.55" y="561.112" type="line"/>
			<point x="37.45" y="558.888" type="line"/>
			<point x="-12.55" y="-1.112" type="line"/>
		</contour>
	</outline>
</glyph>
<glyph name="pos.6" format="2">
	<advance width="50"/>
	<outline>
		<contour>
			<point x="-34.603" y="8.002" type="line"/>
			<point x="15.397" y="68.002" type="line"/>
			<point x="34.603" y="51.998" type="line"/>
			<point x="-15.397" y="-8.002" type="line"/>
		</contour>
	</outline>
</glyph>
<glyph name="pos.61" format="2">
	<advance width="50"/>
	<outline>
		<contour>
			<point x="-37.458" y="1.021" type="line"/>
			<point x="12.542" y="611.021" type="line"/>
			<point x="37.458" y="608.979" type="line"/>
			<point x="-12.542" y="-1.021" type="line"/>
		</contour>
	</outline>
</glyph>
<glyph name="pos.62" format="2">
	<advance width="50"/>
	<outline>
		<contour>
			<point x="-37.46" y="1.005" type="line"/>
			<point x="12.54" y="621.005" type="line"/>
			<point x="37.46" y="618.995" type="line"/>
			<point x="-12.54" y="-1.005" type="line"/>
		</contour>
	</outline>
</glyph>
<glyph name="pos.69" format="2">
	<advance width="50"/>
	<outline>
		<contour>
			<point x="-37.467" y="0.903" type="line"/>
			<point x="12.533" y="690.903" type="line"/>
			<point x="37.467" y="689.097" type="line"/>
			<point x="-12.533" y="-0.903" type="line"/>
		</contour>
	</outline>
</glyph>
<glyph name="pos.7" format="2">
	<advance width="50"/>
	<outline>
		<contour>
			<point x="-35.172" y="7.265" type="line"/>
			<point x="14.828" y="77.265" type="line"/>
			<point x="35.172" y="62.735" type="line"/>
			<point x="-14.828" y="-7.265" type="line"/>
		</contour>
	</outline>
</glyph>
<glyph name="pos.71" format="2">
	<advance width="50"/>
	<outline>
		<contour>
			<point x="-37.469" y="0.878" type="line"/>
			<point x="12.531" y="710.878" type="line"/>
			<point x="37.469" y="709.122" type="line"/>
			<point x="-12.531" y="-0.878" type="line"/>
		</contour>
	</outline>
</glyph>
<glyph name="pos.75" format="2">
	<advance width="50"/>
	<outline>
		<contour>
			<point x="-37.472" y="0.831" type="line"/>
			<point x="12.528" y="750.831" type="line"/>
			<point x="37.472" y="749.169" type="line"/>
			<point x="-12.528" y="-0.831" type="line"/>
		</contour>
	</outline>
</glyph>
<glyph name="pos.77" format="2">
	<advance width="50"/>
	<outline>
		<contour>
			<point x="-37.474" y="0.81" type="line"/>
			<point x="12.526" y="770.81" type="line"/>
			<point x="37.474" y="769.19" type="line"/>
			<point x="-12.526" y="-0.81" type="line"/>
		</contour>
	</outline>
</glyph>
<glyph name="pos.79" format="2">
	<advance width="50"/>
	<outline>
		<contour>
			<point x="-37.475" y="0.79" type="line"/>
			<point x="12.525" y="790.79" type="line"/>
			<point x="37.475" y="789.21" type="line"/>
			<point x="-12.525" y="-0.79" type="line"/>
		</contour>
	</outline>
</glyph>
<glyph name="pos.8" format="2">
	<advance width="50"/>
	<outline>
		<contour>
			<point x="-35.6" y="6.625" type="line"/>
			<point x="14.4" y="86.625" type="line"/>
			<point x="35.6" y="73.375" type="line"/>
			<point x="-14.4" y="-6.625" type="line"/>
		</contour>
	</outline>
</glyph>
<glyph name="pos.80" format="2">
	<advance width="50"/>
	<outline>
		<contour>
			<point x="-37.476" y="0.78" type="line"/>
			<point x="12.524" y="800.78" type="line"/>
			<point x="37.476" y="799.22" type="line"/>
			<point x="-12.524" y="-0.78" type="line"/>
		</contour>
	</outline>
</glyph>
<glyph name="pos.81" format="2">
	<advance width="50"/>
	<outline>
		<contour>
			<point x="-37.476" y="0.77" type="line"/>
			<point x="12.524" y="810.77" type="line"/>
			<point x="37.476" y="809.23" type="line"/>
			<point x="-12.524" y="-0.77" type="line"/>
		</contour>
	</outline>
</glyph>
<glyph name="pos.82" format="2">
	<advance width="50"/>
	<outline>
		<contour>
			<point x="-37.477" y="0.761" type="line"/>
			<point x="12.523" y="820.761" type="line"/>
			<point x="37.477" y="819.239" type="line"/>
			<point x="-12.523" y="-0.761" type="line"/>
		</contour>
	</outline>
</glyph>
<glyph name="pos.84" format="2">
	<advance width="50"/>
	<outline>
		<contour>
			<point x="-37.478" y="0.743" type="line"/>
			<point x="12.522" y="840.743" type="line"/>
			<point x="37.478" y="839.257" type="line"/>
			<point x="-12.522" y="-0.743" type="line"/>
		</contour>
	</outline>
</glyph>
<glyph name="pos.86" format="2">
	<advance width="50"/>
	<outline>
		<contour>
			<point x="-37.479" y="0.726" type="line"/>
			<point x="12.521" y="860.726" type="line"/>
			<point x="37.479" y="859.274" type="line"/>
			<point x="-12.521" y="-0.726" type="line"/>
		</contour>
	</outline>
</glyph>
<glyph name="pos.87" format="2">
	<advance width="50"/>
	<outline>
		<contour>
			<point x="-37.479" y="0.717" type="line"/>
			<point x="12.521" y="870.717" type="line"/>
			<point x="37.479" y="869.283" type="line"/>
			<point x="-12.521" y="-0.717" type="line"/>
		</contour>
	</outline>
</glyph>
<glyph name="pos.88" format="2">
	<advance width="50"/>
	<outline>
		<contour>
			<point x="-37.48" y="0.709" type="line"/>
			<point x="12.52" y="880.709" type="line"/>
			<point x="37.48" y="879.291" type="line"/>
			<point x="-12.52" y="-0.709" type="line"/>
		</contour>
	</outline>
</glyph>
<glyph name="pos.89" format="2">
	<advance width="50"/>
	<outline>
		<contour>
			<point x="-37.48" y="0.701" type="line"/>
			<point x="12.52" y="890.701" type="line"/>
			<point x="37.48" y="889.299" type="line"/>
			<point x="-12.52" y="-0.701" type="line"/>
		</contour>
	</outline>
</glyph>
<glyph name="pos.9" format="2">
	<advance width="50"/>
	<outline>
		<contour>
			<point x="-35.927" y="6.071" type="line"/>
			<point x="14.073" y="96.071" type="line"/>
			<point x="35.927" y="83.929" type="line"/>
			<point x="-14.073" y="-6.071" type="line"/>
		</contour>
	</outline>
</glyph>
<glyph name="pos.92" format="2">
	<advance width="50"/>
	<outline>
		<contour>
			<point x="-37.482" y="0.678" type="line"/>
			<point x="12.518" y="920.678" type="line"/>
			<point x="37.482" y="919.322" type="line"/>
			<point x="-12.518" y="-0.678" type="line"/>
		</contour>
	</outline>
</glyph>
<glyph name="pos.93" format="2">
	<advance width="50"/>
	<outline>
		<contour>
			<point x="-37.482" y="0.671" type="line"/>
			<point x="12.518" y="930.671" type="line"/>
			<point x="37.482" y="929.329" type="line"/>
			<point x="-12.518" y="-0.671" type="line"/>
		</contour>
	</outline>
</glyph>
<glyph name="pos.95" format="2">
	<advance width="50"/>
	<outline>
		<contour>
			<point x="-37.483" y="0.657" type="line"/>
			<point x="12.517" y="950.657" type="line"/>
			<point x="37.483" y="949.343" type="line"/>
			<point x="-12.517" y="-0.657" type="line"/>
		</contour>
	</outline>
</glyph>
<glyph name="pos.96" format="2">
	<advance width="50"/>
	<outline>
		<contour>
			<point x="-37.483" y="0.65" type="line"/>
			<point x="12.517" y="960.65" type="line"/>
			<point x="37.483" y="959.35" type="line"/>
			<point x="-12.517" y="-0.65" type="line"/>
		</contour>
	</outline>
</glyph>
